<svg width="139" height="32" viewBox="0 0 139 32" fill="none" xmlns="http://www.w3.org/2000/svg">
<path d="M21.7082 5.07456C24.6358 6.3404 27.0258 8.53993 28.479 11.3057C29.9323 14.0715 30.3607 17.236 29.6928 20.2707C29.0248 23.3053 27.301 26.0263 24.8092 27.9791C22.3174 29.9319 19.2085 30.9983 16.0019 31C13.2592 30.9999 10.5768 30.2203 8.28785 28.7582C5.9989 27.296 4.20414 25.2155 3.12637 22.775C2.04859 20.3346 1.73527 17.6416 2.22529 15.0303C2.71531 12.4191 3.9871 10.0046 5.88277 8.08655C7.1891 9.85159 8.91285 11.2886 10.9101 12.2777C10.9451 10.1076 11.4745 7.97171 12.4605 6.02232C13.4466 4.07292 14.865 2.35806 16.6147 1C17.95 2.73295 19.6963 4.12984 21.7065 5.07292L21.7082 5.07456Z" fill="url(#paint0_linear_1_14)"/>
<path d="M8 19.6166L15.3469 12.2701C15.7079 11.91 16.2921 11.91 16.6523 12.2701L24 19.6166M9.84615 17.7707V26.0771C9.84615 26.5865 10.2597 27 10.7692 27H14.1538V23.0007C14.1538 22.4912 14.5674 22.0777 15.0769 22.0777H16.9231C17.4326 22.0777 17.8462 22.4912 17.8462 23.0007V27H21.2308C21.7403 27 22.1538 26.5865 22.1538 26.0771V17.7707M12.9231 27H19.6923" stroke="#FAF9F6" stroke-linecap="round" stroke-linejoin="round"/>
<path d="M49.6 12.1V26H47.32V19.92H40.78V26H38.5V12.1H40.78V18.06H47.32V12.1H49.6ZM57.3816 26.18C56.3416 26.18 55.4016 25.9467 54.5616 25.48C53.7216 25 53.0616 24.3333 52.5816 23.48C52.1016 22.6133 51.8616 21.6133 51.8616 20.48C51.8616 19.36 52.1082 18.3667 52.6016 17.5C53.0949 16.6333 53.7682 15.9667 54.6216 15.5C55.4749 15.0333 56.4282 14.8 57.4816 14.8C58.5349 14.8 59.4882 15.0333 60.3416 15.5C61.1949 15.9667 61.8682 16.6333 62.3616 17.5C62.8549 18.3667 63.1016 19.36 63.1016 20.48C63.1016 21.6 62.8482 22.5933 62.3416 23.46C61.8349 24.3267 61.1416 25 60.2616 25.48C59.3949 25.9467 58.4349 26.18 57.3816 26.18ZM57.3816 24.2C57.9682 24.2 58.5149 24.06 59.0216 23.78C59.5416 23.5 59.9616 23.08 60.2816 22.52C60.6016 21.96 60.7616 21.28 60.7616 20.48C60.7616 19.68 60.6082 19.0067 60.3016 18.46C59.9949 17.9 59.5882 17.48 59.0816 17.2C58.5749 16.92 58.0282 16.78 57.4416 16.78C56.8549 16.78 56.3082 16.92 55.8016 17.2C55.3082 17.48 54.9149 17.9 54.6216 18.46C54.3282 19.0067 54.1816 19.68 54.1816 20.48C54.1816 21.6667 54.4816 22.5867 55.0816 23.24C55.6949 23.88 56.4616 24.2 57.3816 24.2ZM75.3355 14.98V26H73.0555V24.7C72.6955 25.1533 72.2221 25.5133 71.6355 25.78C71.0621 26.0333 70.4488 26.16 69.7955 26.16C68.9288 26.16 68.1488 25.98 67.4555 25.62C66.7755 25.26 66.2355 24.7267 65.8355 24.02C65.4488 23.3133 65.2555 22.46 65.2555 21.46V14.98H67.5155V21.12C67.5155 22.1067 67.7621 22.8667 68.2555 23.4C68.7488 23.92 69.4221 24.18 70.2755 24.18C71.1288 24.18 71.8021 23.92 72.2955 23.4C72.8021 22.8667 73.0555 22.1067 73.0555 21.12V14.98H75.3355ZM82.3438 26.18C81.4771 26.18 80.6971 26.0267 80.0038 25.72C79.3238 25.4 78.7838 24.9733 78.3838 24.44C77.9838 23.8933 77.7704 23.2867 77.7438 22.62H80.1038C80.1438 23.0867 80.3638 23.48 80.7638 23.8C81.1771 24.1067 81.6904 24.26 82.3038 24.26C82.9438 24.26 83.4371 24.14 83.7838 23.9C84.1438 23.6467 84.3238 23.3267 84.3238 22.94C84.3238 22.5267 84.1238 22.22 83.7238 22.02C83.3371 21.82 82.7171 21.6 81.8638 21.36C81.0371 21.1333 80.3638 20.9133 79.8438 20.7C79.3238 20.4867 78.8704 20.16 78.4838 19.72C78.1104 19.28 77.9238 18.7 77.9238 17.98C77.9238 17.3933 78.0971 16.86 78.4438 16.38C78.7904 15.8867 79.2838 15.5 79.9238 15.22C80.5771 14.94 81.3238 14.8 82.1638 14.8C83.4171 14.8 84.4238 15.12 85.1838 15.76C85.9571 16.3867 86.3704 17.2467 86.4238 18.34H84.1438C84.1038 17.8467 83.9038 17.4533 83.5438 17.16C83.1838 16.8667 82.6971 16.72 82.0838 16.72C81.4838 16.72 81.0238 16.8333 80.7038 17.06C80.3838 17.2867 80.2238 17.5867 80.2238 17.96C80.2238 18.2533 80.3304 18.5 80.5438 18.7C80.7571 18.9 81.0171 19.06 81.3238 19.18C81.6304 19.2867 82.0838 19.4267 82.6838 19.6C83.4838 19.8133 84.1371 20.0333 84.6438 20.26C85.1638 20.4733 85.6104 20.7933 85.9838 21.22C86.3571 21.6467 86.5504 22.2133 86.5638 22.92C86.5638 23.5467 86.3904 24.1067 86.0438 24.6C85.6971 25.0933 85.2038 25.48 84.5638 25.76C83.9371 26.04 83.1971 26.18 82.3438 26.18ZM99.1273 20.22C99.1273 20.6333 99.1007 21.0067 99.0473 21.34H90.6273C90.694 22.22 91.0207 22.9267 91.6073 23.46C92.194 23.9933 92.914 24.26 93.7673 24.26C94.994 24.26 95.8607 23.7467 96.3673 22.72H98.8273C98.494 23.7333 97.8873 24.5667 97.0073 25.22C96.1407 25.86 95.0607 26.18 93.7673 26.18C92.714 26.18 91.7673 25.9467 90.9273 25.48C90.1007 25 89.4473 24.3333 88.9673 23.48C88.5007 22.6133 88.2673 21.6133 88.2673 20.48C88.2673 19.3467 88.494 18.3533 88.9473 17.5C89.414 16.6333 90.0607 15.9667 90.8873 15.5C91.7273 15.0333 92.6873 14.8 93.7673 14.8C94.8073 14.8 95.734 15.0267 96.5473 15.48C97.3607 15.9333 97.994 16.5733 98.4473 17.4C98.9007 18.2133 99.1273 19.1533 99.1273 20.22ZM96.7473 19.5C96.734 18.66 96.434 17.9867 95.8473 17.48C95.2607 16.9733 94.534 16.72 93.6673 16.72C92.8807 16.72 92.2073 16.9733 91.6473 17.48C91.0873 17.9733 90.754 18.6467 90.6473 19.5H96.7473ZM105.991 16.84H103.951V26H101.651V16.84H100.351V14.98H101.651V14.2C101.651 12.9333 101.984 12.0133 102.651 11.44C103.331 10.8533 104.391 10.56 105.831 10.56V12.46C105.138 12.46 104.651 12.5933 104.371 12.86C104.091 13.1133 103.951 13.56 103.951 14.2V14.98H105.991V16.84ZM109.172 13.52C108.758 13.52 108.412 13.38 108.132 13.1C107.852 12.82 107.712 12.4733 107.712 12.06C107.712 11.6467 107.852 11.3 108.132 11.02C108.412 10.74 108.758 10.6 109.172 10.6C109.572 10.6 109.912 10.74 110.192 11.02C110.472 11.3 110.612 11.6467 110.612 12.06C110.612 12.4733 110.472 12.82 110.192 13.1C109.912 13.38 109.572 13.52 109.172 13.52ZM110.292 14.98V26H108.012V14.98H110.292ZM115.565 16.58C115.898 16.02 116.338 15.5867 116.885 15.28C117.445 14.96 118.105 14.8 118.865 14.8V17.16H118.285C117.392 17.16 116.712 17.3867 116.245 17.84C115.792 18.2933 115.565 19.08 115.565 20.2V26H113.285V14.98H115.565V16.58ZM131.061 20.22C131.061 20.6333 131.034 21.0067 130.981 21.34H122.561C122.628 22.22 122.954 22.9267 123.541 23.46C124.128 23.9933 124.848 24.26 125.701 24.26C126.928 24.26 127.794 23.7467 128.301 22.72H130.761C130.428 23.7333 129.821 24.5667 128.941 25.22C128.074 25.86 126.994 26.18 125.701 26.18C124.648 26.18 123.701 25.9467 122.861 25.48C122.034 25 121.381 24.3333 120.901 23.48C120.434 22.6133 120.201 21.6133 120.201 20.48C120.201 19.3467 120.428 18.3533 120.881 17.5C121.348 16.6333 121.994 15.9667 122.821 15.5C123.661 15.0333 124.621 14.8 125.701 14.8C126.741 14.8 127.668 15.0267 128.481 15.48C129.294 15.9333 129.928 16.5733 130.381 17.4C130.834 18.2133 131.061 19.1533 131.061 20.22ZM128.681 19.5C128.668 18.66 128.368 17.9867 127.781 17.48C127.194 16.9733 126.468 16.72 125.601 16.72C124.814 16.72 124.141 16.9733 123.581 17.48C123.021 17.9733 122.688 18.6467 122.581 19.5H128.681Z" fill="url(#paint1_linear_1_14)"/>
<defs>
<linearGradient id="paint0_linear_1_14" x1="16" y1="1" x2="16" y2="31" gradientUnits="userSpaceOnUse">
<stop stop-color="#FFC299"/>
<stop offset="1" stop-color="#FF7D26"/>
</linearGradient>
<linearGradient id="paint1_linear_1_14" x1="94.5" y1="4" x2="94.5" y2="28" gradientUnits="userSpaceOnUse">
<stop stop-color="#FFC299"/>
<stop offset="1" stop-color="#FF7D26"/>
</linearGradient>
</defs>
</svg>
